<svg width="57" height="50" viewBox="0 0 57 50" fill="none" xmlns="http://www.w3.org/2000/svg">
<path d="M50 6.52174H42.4674L38.7636 0.967392C38.5652 0.669977 38.2964 0.426095 37.9812 0.257352C37.666 0.0886092 37.3141 0.000214687 36.9565 0H19.5652C19.2077 0.000214687 18.8557 0.0886092 18.5405 0.257352C18.2253 0.426095 17.9566 0.669977 17.7582 0.967392L14.0516 6.52174H6.52174C4.79207 6.52174 3.13324 7.20885 1.91017 8.43191C0.68711 9.65498 0 11.3138 0 13.0435V43.4783C0 45.2079 0.68711 46.8668 1.91017 48.0898C3.13324 49.3129 4.79207 50 6.52174 50H50C51.7297 50 53.3885 49.3129 54.6116 48.0898C55.8346 46.8668 56.5217 45.2079 56.5217 43.4783V13.0435C56.5217 11.3138 55.8346 9.65498 54.6116 8.43191C53.3885 7.20885 51.7297 6.52174 50 6.52174ZM52.1739 43.4783C52.1739 44.0548 51.9449 44.6078 51.5372 45.0154C51.1295 45.4231 50.5766 45.6522 50 45.6522H6.52174C5.94518 45.6522 5.39224 45.4231 4.98455 45.0154C4.57686 44.6078 4.34783 44.0548 4.34783 43.4783V13.0435C4.34783 12.4669 4.57686 11.914 4.98455 11.5063C5.39224 11.0986 5.94518 10.8696 6.52174 10.8696H15.2174C15.5754 10.8698 15.9279 10.7816 16.2436 10.6129C16.5593 10.4441 16.8285 10.2 17.0272 9.90217L20.7283 4.34783H35.7908L39.4946 9.90217C39.6932 10.2 39.9624 10.4441 40.2781 10.6129C40.5938 10.7816 40.9464 10.8698 41.3043 10.8696H50C50.5766 10.8696 51.1295 11.0986 51.5372 11.5063C51.9449 11.914 52.1739 12.4669 52.1739 13.0435V43.4783ZM28.2609 15.2174C25.8961 15.2174 23.5844 15.9186 21.6182 17.2324C19.6519 18.5462 18.1194 20.4136 17.2145 22.5983C16.3095 24.7831 16.0727 27.1872 16.5341 29.5065C16.9954 31.8259 18.1342 33.9563 19.8063 35.6285C21.4785 37.3006 23.6089 38.4394 25.9283 38.9007C28.2476 39.362 30.6517 39.1253 32.8364 38.2203C35.0212 37.3153 36.8886 35.7828 38.2024 33.8166C39.5162 31.8504 40.2174 29.5387 40.2174 27.1739C40.2138 24.004 38.9529 20.9648 36.7114 18.7233C34.4699 16.4818 31.4308 15.221 28.2609 15.2174ZM28.2609 34.7826C26.756 34.7826 25.2849 34.3364 24.0337 33.5003C22.7825 32.6643 21.8072 31.4759 21.2313 30.0856C20.6555 28.6953 20.5048 27.1655 20.7984 25.6895C21.092 24.2136 21.8166 22.8578 22.8807 21.7938C23.9448 20.7297 25.3005 20.005 26.7765 19.7114C28.2524 19.4178 29.7823 19.5685 31.1726 20.1444C32.5629 20.7203 33.7512 21.6955 34.5873 22.9467C35.4233 24.198 35.8696 25.6691 35.8696 27.1739C35.8696 29.1919 35.0679 31.1272 33.641 32.5541C32.2141 33.981 30.2788 34.7826 28.2609 34.7826Z" fill="#EEBB49"/>
</svg>
